<svg data-noselect="" viewBox="0 0 400 300" width="400" height="300" preserveAspectRatio="none" version="1.1" xmlns="http://www.w3.org/2000/svg" style="background: rgba(255, 255, 255, 0);"><defs></defs> <g id="shape_9wu4VNbJw7" transform="translate(92.5561797752809,16.853932584269664) rotate(0,163.8329976007739,212.15937593215952) scale(0.5617977528089888,0.5617977528089888)" filter="" style="cursor: move; opacity: 1;"><g><rect fill="rgba(0,0,0,0)" width="347.6659952015478" height="444.31875186431904" x="-10" y="-10"></rect><svg xmlns="http://www.w3.org/2000/svg" xmlns:xlink="http://www.w3.org/1999/xlink" shape-rendering="auto" text-rendering="auto" contentscripttype="text/ecmascript" color-rendering="auto" color-interpolation="auto" xml:space="preserve" preserveAspectRatio="none" image-rendering="auto" zoomAndPan="magnify" version="1.1" contentstyletype="text/css" x="0px" enable-background="new 0 0 83.556 105.549" y="0px" viewBox="3 2.9998626708984375 74.55699920654297 96.54933166503906" width="327.6659952015478" height="424.31875186431904" data-parent="shape_9wu4VNbJw7">
 <g fill="#004FA3" id="layer5_9TxSKIe4Cy">
  <path clip-rule="evenodd" d="M8.291,84.643V17.238c0-4.256,6.349-8.393,10.471-7.343   l48.731,12.413c1.069,0.273,1.981,0.877,2.731,1.71c-1.063-4.121-3.351-7.296-7.339-8.317L13.942,3.198   C9.139,1.97,3,6.654,3,11.615v71.549c0,1.63,2.291,5.201,5.854,9.241C8.01,89.282,8.291,85.306,8.291,84.643L8.291,84.643   L8.291,84.643z M10.1,89.09c3.076,8.92,5.635,11.737,12.141,9.949L68.54,86.291c6.489-1.789,9.017-5.621,9.017-10.582V29.051   c0-2.635-2.782-5.89-6.115-8.546c1.5,4.21,1.307,9.386,1.307,11.214v40.035c0,4.253-2.647,7.567-8.221,9.079L24.683,91.652   C16.585,93.849,13.188,92.399,10.1,89.09L10.1,89.09L10.1,89.09z" fill-rule="evenodd"></path>
 </g>
 <g fill="#FFD800" id="layer4_1mF7pUwwnW">
  <polygon clip-rule="evenodd" fill-rule="evenodd" points="10.469,26.423 70.149,34.11 70.149,38.503 10.469,34.293    10.469,26.423 10.469,26.423  "></polygon>
 </g>
 <g fill="#863D93" id="layer3_fLLkyvT1zD">
  <polygon clip-rule="evenodd" fill-rule="evenodd" points="11.569,65.415 69.966,64.133 69.966,67.064    11.569,73.286 11.569,65.415 11.569,65.415  "></polygon>
 </g>
 <g fill="#9DC93A" id="layer2_gZIn7eObyq">
  <polygon clip-rule="evenodd" fill-rule="evenodd" points="56.332,48.895 70.149,49.488 70.149,52.416    56.321,52.459 56.332,48.895 56.332,48.895  "></polygon>
  <polygon clip-rule="evenodd" fill-rule="evenodd" points="10.469,46.924 28.786,47.711 29.042,51.811    10.652,52.599 10.469,46.924 10.469,46.924  "></polygon>
 </g>
 <g fill="#E6081C" id="layer1_wYqIedrz4A">
  <polygon clip-rule="evenodd" fill-rule="evenodd" points="28.042,33.562 34.631,33.562 34.086,85.552    30.791,85.734 28.042,33.562 28.042,33.562  "></polygon>
  <polygon clip-rule="evenodd" fill-rule="evenodd" points="50.195,20.564 56.418,21.662 56.236,80.058 52.94,81.158    50.195,20.564 50.195,20.564  "></polygon>
 </g>
 <!--Copyright (c) Logomaker.com.cn  @2015-05-31-->
</svg></g> <!----></g><g id="shapge_swnDU1D2Iu" transform="translate(306.8820224719101,317.97752808988764) rotate(0,0.5,Infinity) scale(0.5617977528089888,0.5617977528089888)" filter="" style="cursor: move; opacity: 1;"><g><svg xmlns="http://www.w3.org/2000/svg" version="1.1" xmlns:xlink="http://www.w3.org/1999/xlink" overflow="hidden" style="top:0; left: 0" width="1" height="Infinity" viewBox="0 0 175.80999999999997 38.279999999999994" preserveAspectRatio="none" data-parent="shapge_swnDU1D2Iu"><rect fill="rgba(0,0,0,0)" width="175" height="38"></rect> <rect opacity="0"></rect><g transform="translate(0 0)" data-width="170.80999999999997"><path fill="#73AF41" d="M6.29 0.38L6.29 0.38L6.29 0.38Q4.32 0.38 3.00-0.80L3.00-0.80L3.00-0.80Q1.68-1.97 1.68-4.09L1.68-4.09L1.68-4.09Q1.68-6.67 4.03-8.05L4.03-8.05L4.03-8.05Q6.38-9.43 11.37-9.98L11.37-9.98L11.37-9.98Q11.37-10.99 11.09-11.90L11.09-11.90L11.09-11.90Q10.82-12.82 10.12-13.38L10.12-13.38L10.12-13.38Q9.43-13.95 8.12-13.95L8.12-13.95L8.12-13.95Q6.76-13.95 5.55-13.44L5.55-13.44L5.55-13.44Q4.35-12.93 3.39-12.27L3.39-12.27L2.35-14.09L2.35-14.09Q3.45-14.82 5.06-15.49L5.06-15.49L5.06-15.49Q6.67-16.15 8.55-16.15L8.55-16.15L8.55-16.15Q11.43-16.15 12.72-14.38L12.72-14.38L12.72-14.38Q14.01-12.62 14.01-9.69L14.01-9.69L14.01 0L11.83 0L11.60-1.89L11.51-1.89L11.51-1.89Q10.38-0.93 9.06-0.28L9.06-0.28L9.06-0.28Q7.74 0.38 6.29 0.38ZM7.05-1.74L7.05-1.74L7.05-1.74Q8.21-1.74 9.22-2.28L9.22-2.28L9.22-2.28Q10.24-2.81 11.37-3.83L11.37-3.83L11.37-8.24L11.37-8.24Q7.45-7.77 5.86-6.79L5.86-6.79L5.86-6.79Q4.26-5.80 4.26-4.26L4.26-4.26L4.26-4.26Q4.26-2.93 5.08-2.33L5.08-2.33L5.08-2.33Q5.89-1.74 7.05-1.74Z" transform="translate(0 25.52)"></path><path fill="#73AF41" d="M8.27 0L5.16 0L0.78-15.75L3.48-15.75L5.83-6.64L5.83-6.64Q5.97-5.95 6.12-5.25L6.12-5.25L6.12-5.25Q6.47-3.74 6.76-2.23L6.76-2.23L6.90-2.23L6.90-2.23Q7.02-2.73 7.13-3.19L7.13-3.19L7.13-3.19Q7.51-4.90 7.98-6.64L7.98-6.64L10.41-15.75L12.99-15.75L15.46-6.64L15.46-6.64Q15.66-5.89 15.83-5.13L15.83-5.13L15.83-5.13Q16.18-3.68 16.56-2.23L16.56-2.23L16.68-2.23L16.68-2.23Q16.96-3.42 17.20-4.58L17.20-4.58L17.20-4.58Q17.43-5.60 17.66-6.64L17.66-6.64L19.98-15.75L22.48-15.75L18.24 0L15.05 0L12.76-8.50L12.76-8.50Q12.35-9.98 12.04-11.48L12.04-11.48L12.04-11.48Q11.86-12.24 11.69-13.02L11.69-13.02L11.54-13.02L11.54-13.02Q11.51-12.91 11.48-12.82L11.48-12.82L11.48-12.82Q11.02-10.56 10.47-8.44L10.47-8.44L8.27 0Z" transform="translate(16.356 25.52)"></path><path fill="#73AF41" d="M9.02 0.38L9.02 0.38L9.02 0.38Q6.93 0.38 5.22-0.59L5.22-0.59L5.22-0.59Q3.51-1.57 2.49-3.42L2.49-3.42L2.49-3.42Q1.48-5.28 1.48-7.86L1.48-7.86L1.48-7.86Q1.48-10.41 2.49-12.27L2.49-12.27L2.49-12.27Q3.51-14.12 5.13-15.14L5.13-15.14L5.13-15.14Q6.76-16.15 8.58-16.15L8.58-16.15L8.58-16.15Q11.60-16.15 13.22-14.14L13.22-14.14L13.22-14.14Q14.85-12.12 14.85-8.76L14.85-8.76L14.85-8.76Q14.85-7.89 14.73-7.25L14.73-7.25L4.12-7.25L4.12-7.25Q4.29-4.70 5.70-3.22L5.70-3.22L5.70-3.22Q7.11-1.74 9.34-1.74L9.34-1.74L9.34-1.74Q10.50-1.74 11.46-2.07L11.46-2.07L11.46-2.07Q12.41-2.41 13.28-2.99L13.28-2.99L14.24-1.25L14.24-1.25Q13.20-0.55 11.92-0.09L11.92-0.09L11.92-0.09Q10.64 0.38 9.02 0.38ZM4.09-9.13L4.09-9.13L12.53-9.13L12.53-9.13Q12.53-13.92 8.61-14.04L8.61-14.04L8.61-14.04Q6.93-14.04 5.66-12.76L5.66-12.76L5.66-12.76Q4.38-11.48 4.09-9.13Z" transform="translate(39.614000000000004 25.52)"></path><path fill="#73AF41" d="M6.79 0.38L6.79 0.38L6.79 0.38Q5.10 0.38 3.58-0.23L3.58-0.23L3.58-0.23Q2.06-0.84 0.90-1.80L0.90-1.80L2.20-3.54L2.20-3.54Q3.22-2.70 4.34-2.19L4.34-2.19L4.34-2.19Q5.45-1.68 6.87-1.68L6.87-1.68L6.87-1.68Q8.44-1.68 9.21-2.41L9.21-2.41L9.21-2.41Q9.98-3.13 9.98-4.15L9.98-4.15L9.98-4.15Q9.98-4.96 9.44-5.50L9.44-5.50L9.44-5.50Q8.90-6.03 8.09-6.42L8.09-6.42L8.09-6.42Q7.28-6.82 6.38-7.13L6.38-7.13L6.38-7.13Q5.25-7.54 4.18-8.09L4.18-8.09L4.18-8.09Q3.10-8.64 2.39-9.50L2.39-9.50L2.39-9.50Q1.68-10.35 1.68-11.69L1.68-11.69L1.68-11.69Q1.68-13.57 3.12-14.86L3.12-14.86L3.12-14.86Q4.55-16.15 7.11-16.15L7.11-16.15L7.11-16.15Q8.55-16.15 9.82-15.63L9.82-15.63L9.82-15.63Q11.08-15.11 12.01-14.38L12.01-14.38L10.73-12.67L10.73-12.67Q9.92-13.28 9.05-13.67L9.05-13.67L9.05-13.67Q8.18-14.07 7.11-14.07L7.11-14.07L7.11-14.07Q5.63-14.07 4.93-13.40L4.93-13.40L4.93-13.40Q4.23-12.73 4.23-11.80L4.23-11.80L4.23-11.80Q4.23-11.08 4.68-10.61L4.68-10.61L4.68-10.61Q5.13-10.15 5.86-9.82L5.86-9.82L5.86-9.82Q6.58-9.48 7.42-9.19L7.42-9.19L7.42-9.19Q7.57-9.13 7.71-9.08L7.71-9.08L7.71-9.08Q8.87-8.67 9.98-8.12L9.98-8.12L9.98-8.12Q11.08-7.57 11.80-6.68L11.80-6.68L11.80-6.68Q12.53-5.80 12.53-4.29L12.53-4.29L12.53-4.29Q12.53-2.38 11.05-1.00L11.05-1.00L11.05-1.00Q9.57 0.38 6.79 0.38Z" transform="translate(55.68000000000001 25.52)"></path><path fill="#73AF41" d="M8.79 0.38L8.79 0.38L8.79 0.38Q6.87 0.38 5.21-0.59L5.21-0.59L5.21-0.59Q3.54-1.57 2.51-3.41L2.51-3.41L2.51-3.41Q1.48-5.25 1.48-7.86L1.48-7.86L1.48-7.86Q1.48-10.50 2.51-12.34L2.51-12.34L2.51-12.34Q3.54-14.18 5.21-15.17L5.21-15.17L5.21-15.17Q6.87-16.15 8.79-16.15L8.79-16.15L8.79-16.15Q10.73-16.15 12.38-15.17L12.38-15.17L12.38-15.17Q14.04-14.18 15.07-12.34L15.07-12.34L15.07-12.34Q16.10-10.50 16.10-7.86L16.10-7.86L16.10-7.86Q16.10-5.25 15.07-3.41L15.07-3.41L15.07-3.41Q14.04-1.57 12.38-0.59L12.38-0.59L12.38-0.59Q10.73 0.38 8.79 0.38ZM8.79-1.83L8.79-1.83L8.79-1.83Q10.85-1.83 12.11-3.48L12.11-3.48L12.11-3.48Q13.37-5.13 13.37-7.86L13.37-7.86L13.37-7.86Q13.37-10.59 12.11-12.27L12.11-12.27L12.11-12.27Q10.85-13.95 8.79-13.95L8.79-13.95L8.79-13.95Q6.76-13.95 5.50-12.27L5.50-12.27L5.50-12.27Q4.23-10.59 4.23-7.86L4.23-7.86L4.23-7.86Q4.23-5.13 5.50-3.48L5.50-3.48L5.50-3.48Q6.76-1.83 8.79-1.83Z" transform="translate(69.25200000000001 25.52)"></path><path fill="#73AF41" d="M5.31 0L2.67 0L2.67-15.75L4.84-15.75L5.08-13.46L5.16-13.46L5.16-13.46Q6.18-14.62 7.41-15.38L7.41-15.38L7.41-15.38Q8.64-16.15 10.06-16.15L10.06-16.15L10.06-16.15Q11.86-16.15 12.91-15.36L12.91-15.36L12.91-15.36Q13.95-14.56 14.41-13.14L14.41-13.14L14.41-13.14Q15.63-14.50 16.91-15.33L16.91-15.33L16.91-15.33Q18.18-16.15 19.60-16.15L19.60-16.15L19.60-16.15Q22.04-16.15 23.21-14.57L23.21-14.57L23.21-14.57Q24.39-12.99 24.39-9.98L24.39-9.98L24.39 0L21.75 0L21.75-9.63L21.75-9.63Q21.75-11.86 21.04-12.85L21.04-12.85L21.04-12.85Q20.33-13.83 18.82-13.83L18.82-13.83L18.82-13.83Q16.99-13.83 14.85-11.43L14.85-11.43L14.85 0L12.21 0L12.21-9.63L12.21-9.63Q12.21-11.86 11.50-12.85L11.50-12.85L11.50-12.85Q10.79-13.83 9.28-13.83L9.28-13.83L9.28-13.83Q7.51-13.83 5.31-11.43L5.31-11.43L5.31 0Z" transform="translate(86.82600000000001 25.52)"></path><path fill="#73AF41" d="M9.02 0.38L9.02 0.38L9.02 0.38Q6.93 0.38 5.22-0.59L5.22-0.59L5.22-0.59Q3.51-1.57 2.49-3.42L2.49-3.42L2.49-3.42Q1.48-5.28 1.48-7.86L1.48-7.86L1.48-7.86Q1.48-10.41 2.49-12.27L2.49-12.27L2.49-12.27Q3.51-14.12 5.13-15.14L5.13-15.14L5.13-15.14Q6.76-16.15 8.58-16.15L8.58-16.15L8.58-16.15Q11.60-16.15 13.22-14.14L13.22-14.14L13.22-14.14Q14.85-12.12 14.85-8.76L14.85-8.76L14.85-8.76Q14.85-7.89 14.73-7.25L14.73-7.25L4.12-7.25L4.12-7.25Q4.29-4.70 5.70-3.22L5.70-3.22L5.70-3.22Q7.11-1.74 9.34-1.74L9.34-1.74L9.34-1.74Q10.50-1.74 11.46-2.07L11.46-2.07L11.46-2.07Q12.41-2.41 13.28-2.99L13.28-2.99L14.24-1.25L14.24-1.25Q13.20-0.55 11.92-0.09L11.92-0.09L11.92-0.09Q10.64 0.38 9.02 0.38ZM4.09-9.13L4.09-9.13L12.53-9.13L12.53-9.13Q12.53-13.92 8.61-14.04L8.61-14.04L8.61-14.04Q6.93-14.04 5.66-12.76L5.66-12.76L5.66-12.76Q4.38-11.48 4.09-9.13Z" transform="translate(113.68 25.52)"></path><path fill="#73AF41" d="M8.76-7.11L1.33-7.11L1.33-9.13L8.76-9.13L8.76-7.11Z" transform="translate(129.746 25.52)"></path><path fill="#73AF41" d="M8.87 0.38L8.87 0.38L8.87 0.38Q6.79 0.38 5.12-0.59L5.12-0.59L5.12-0.59Q3.45-1.57 2.47-3.41L2.47-3.41L2.47-3.41Q1.48-5.25 1.48-7.86L1.48-7.86L1.48-7.86Q1.48-10.50 2.54-12.34L2.54-12.34L2.54-12.34Q3.60-14.18 5.34-15.17L5.34-15.17L5.34-15.17Q7.08-16.15 9.08-16.15L9.08-16.15L9.08-16.15Q10.61-16.15 11.73-15.60L11.73-15.60L11.73-15.60Q12.85-15.05 13.69-14.30L13.69-14.30L12.33-12.53L12.33-12.53Q11.63-13.17 10.88-13.56L10.88-13.56L10.88-13.56Q10.12-13.95 9.16-13.95L9.16-13.95L9.16-13.95Q7.05-13.95 5.64-12.27L5.64-12.27L5.64-12.27Q4.23-10.59 4.23-7.86L4.23-7.86L4.23-7.86Q4.23-5.13 5.58-3.48L5.58-3.48L5.58-3.48Q6.93-1.83 9.11-1.83L9.11-1.83L9.11-1.83Q10.21-1.83 11.14-2.26L11.14-2.26L11.14-2.26Q12.06-2.70 12.82-3.39L12.82-3.39L13.95-1.62L13.95-1.62Q11.72 0.38 8.87 0.38Z" transform="translate(139.809 25.52)"></path><path fill="#73AF41" d="M5.45 0.38L5.45 0.38L5.45 0.38Q3.97 0.38 3.32-0.54L3.32-0.54L3.32-0.54Q2.67-1.45 2.67-3.13L2.67-3.13L2.67-23.08L5.31-23.08L5.31-2.96L5.31-2.96Q5.31-2.35 5.54-2.09L5.54-2.09L5.54-2.09Q5.77-1.83 6.06-1.83L6.06-1.83L6.06-1.83Q6.18-1.83 6.29-1.84L6.29-1.84L6.29-1.84Q6.41-1.86 6.61-1.89L6.61-1.89L6.99 0.15L6.99 0.15Q6.50 0.38 5.45 0.38Z" transform="translate(154.57 25.52)"></path><path fill="#73AF41" d="M5.31 0L2.67 0L2.67-15.75L5.31-15.75L5.31 0ZM4.00-19.00L4.00-19.00L4.00-19.00Q3.22-19.00 2.70-19.49L2.70-19.49L2.70-19.49Q2.18-19.98 2.18-20.71L2.18-20.71L2.18-20.71Q2.18-22.33 4.00-22.42L4.00-22.42L4.00-22.42Q4.79-22.42 5.31-21.97L5.31-21.97L5.31-21.97Q5.83-21.52 5.83-20.71L5.83-20.71L5.83-20.71Q5.83-19.98 5.31-19.49L5.31-19.49L5.31-19.49Q4.79-19.00 4.00-19.00Z" transform="translate(162.83499999999998 25.52)"></path></g></svg></g> <!----></g>  <!----></svg>